<?xml version="1.0" encoding="utf-8"?>
<!-- Generator: Adobe Illustrator 19.1.0, SVG Export Plug-In . SVG Version: 6.00 Build 0)  -->
<svg version="1.1" xmlns="http://www.w3.org/2000/svg" xmlns:xlink="http://www.w3.org/1999/xlink" x="0px" y="0px"
	 viewBox="0 0 500.6 212.6" style="enable-background:new 0 0 500.6 212.6;" xml:space="preserve">
<style type="text/css">
	.st0{fill:#0D0D0D;}
	.st1{fill:#F0F0F0;}
	.st2{fill:none;stroke:#FFFFFF;stroke-miterlimit:10;}
	.st3{fill:#FFFFFF;}
	.st4{fill:#304FFE;}
	.st5{fill:#FF1D25;}
	.st6{fill:#1D1D1B;}
</style>
<g id="Calque_1">
</g>
<g id="Calque_3">
</g>
<g id="Calque_2">
	<g>
		<path class="st6" d="M261.6,202.6H239v-43.3c0-6.2,5.1-11.3,11.3-11.3s11.3,5.1,11.3,11.3V202.6z M239.6,202H261v-42.7
			c0-5.9-4.8-10.7-10.7-10.7s-10.7,4.8-10.7,10.7V202z"/>
		<path class="st6" d="M261.6,123.6H239V89.3c0-6.2,5.1-11.3,11.3-11.3s11.3,5.1,11.3,11.3V123.6z M239.6,123H261V89.3
			c0-5.9-4.8-10.7-10.7-10.7s-10.7,4.8-10.7,10.7V123z"/>
		<path class="st6" d="M304.6,204.6H196V202h108.6V204.6z M196.6,204H304v-1.4H196.6V204z"/>
		<path class="st6" d="M292.6,144.6H208V142h84.6V144.6z M208.6,144H292v-1.4h-83.4V144z"/>
		<path class="st6" d="M292.6,67.6H208V61h84.6V67.6z M208.6,67H292v-5.4h-83.4V67z"/>
		<path class="st6" d="M294.6,71.6H206V69h88.6V71.6z M206.6,71H294v-1.4h-87.4V71z"/>
		<path class="st6" d="M287.6,25.6H213V23h74.6V25.6z M213.6,25H287v-1.4h-73.4V25z"/>
		<path class="st6" d="M295.6,57.6H205L250.3,35l0.1,0.1L295.6,57.6z M207.6,57H293l-42.7-21.4L207.6,57z"/>
		<path class="st6" d="M296.6,133.6H204V131h92.6V133.6z M204.6,133H296v-1.4h-91.4V133z"/>
		<path class="st6" d="M296.6,59.6H204V57h92.6V59.6z M204.6,59H296v-1.4h-91.4V59z"/>
		<path class="st6" d="M290.6,140.6H210V135h80.6V140.6z M210.6,140H290v-4.4h-79.4V140z"/>
		<path class="st6" d="M310.6,208.6H190V206h120.6V208.6z M190.6,208H310v-1.4H190.6V208z"/>
		<path class="st6" d="M316.6,212.6H184V210h132.6V212.6z M184.6,212H316v-1.4H184.6V212z"/>
		<path class="st6" d="M271.6,202.6H263V194h8.6V202.6z M263.6,202h7.4v-7.4h-7.4V202z"/>
		<path class="st6" d="M271.6,146.6H263V144h8.6V146.6z M263.6,146h7.4v-1.4h-7.4V146z"/>
		<path class="st6" d="M269.6,194.6H265V146h4.6V194.6z M265.6,194h3.4v-47.4h-3.4V194z"/>
		<path class="st6" d="M291.6,202.6H283V194h8.6V202.6z M283.6,202h7.4v-7.4h-7.4V202z"/>
		<path class="st6" d="M291.6,146.6H283V144h8.6V146.6z M283.6,146h7.4v-1.4h-7.4V146z"/>
		<path class="st6" d="M289.6,194.6H285V146h4.6V194.6z M285.6,194h3.4v-47.4h-3.4V194z"/>
		<path class="st6" d="M237.6,202.6H229V194h8.6V202.6z M229.6,202h7.4v-7.4h-7.4V202z"/>
		<path class="st6" d="M237.6,146.6H229V144h8.6V146.6z M229.6,146h7.4v-1.4h-7.4V146z"/>
		<path class="st6" d="M235.6,194.6H231V146h4.6V194.6z M231.6,194h3.4v-47.4h-3.4V194z"/>
		<path class="st6" d="M237.6,131.6H229V123h8.6V131.6z M229.6,131h7.4v-7.4h-7.4V131z"/>
		<path class="st6" d="M263.6,131.6H237V126h26.6V131.6z M237.6,131H263v-4.4h-25.4V131z"/>
		<path class="st6" d="M283.6,131.6H271V126h12.6V131.6z M271.6,131H283v-4.4h-11.4V131z"/>
		<path class="st6" d="M229.6,131.6H217V126h12.6V131.6z M217.6,131H229v-4.4h-11.4V131z"/>
		<path class="st6" d="M283.6,77.6H271V73h12.6V77.6z M271.6,77H283v-3.4h-11.4V77z"/>
		<path class="st6" d="M229.6,77.6H217V73h12.6V77.6z M217.6,77H229v-3.4h-11.4V77z"/>
		<path class="st6" d="M237.6,79.6H229V73h8.6V79.6z M229.6,79h7.4v-5.4h-7.4V79z"/>
		<path class="st6" d="M236.6,123.6H230V79h6.6V123.6z M230.6,123h5.4V79.6h-5.4V123z"/>
		<path class="st6" d="M271.6,131.6H263V123h8.6V131.6z M263.6,131h7.4v-7.4h-7.4V131z"/>
		<path class="st6" d="M271.6,79.6H263V73h8.6V79.6z M263.6,79h7.4v-5.4h-7.4V79z"/>
		<path class="st6" d="M270.6,123.6H264V79h6.6V123.6z M264.6,123h5.4V79.6h-5.4V123z"/>
		<path class="st6" d="M291.6,131.6H283V123h8.6V131.6z M283.6,131h7.4v-7.4h-7.4V131z"/>
		<path class="st6" d="M291.6,79.6H283V73h8.6V79.6z M283.6,79h7.4v-5.4h-7.4V79z"/>
		<path class="st6" d="M290.6,123.6H284V79h6.6V123.6z M284.6,123h5.4V79.6h-5.4V123z"/>
		<path class="st6" d="M217.6,131.6H209V123h8.6V131.6z M209.6,131h7.4v-7.4h-7.4V131z"/>
		<path class="st6" d="M217.6,79.6H209V73h8.6V79.6z M209.6,79h7.4v-5.4h-7.4V79z"/>
		<path class="st6" d="M216.6,123.6H210V79h6.6V123.6z M210.6,123h5.4V79.6h-5.4V123z"/>
		<path class="st6" d="M217.6,202.6H209V194h8.6V202.6z M209.6,202h7.4v-7.4h-7.4V202z"/>
		<path class="st6" d="M217.6,146.6H209V144h8.6V146.6z M209.6,146h7.4v-1.4h-7.4V146z"/>
		<path class="st6" d="M215.6,194.6H211V146h4.6V194.6z M211.6,194h3.4v-47.4h-3.4V194z"/>
		<path class="st6" d="M264.6,89.3H264c0-7.6-6.1-13.7-13.7-13.7s-13.7,6.1-13.7,13.7H236c0-7.9,6.4-14.3,14.3-14.3
			S264.6,81.4,264.6,89.3z"/>
		<path class="st6" d="M250.3,55.6c-3.5,0-6.3-2.8-6.3-6.3s2.8-6.3,6.3-6.3s6.3,2.8,6.3,6.3S253.8,55.6,250.3,55.6z M250.3,43.6
			c-3.1,0-5.7,2.6-5.7,5.7s2.6,5.7,5.7,5.7s5.7-2.6,5.7-5.7S253.4,43.6,250.3,43.6z"/>
		<path class="st6" d="M227.3,43.6c-1.4,0-2.5-1.5-2.5-3.3s1.1-3.3,2.5-3.3s2.5,1.5,2.5,3.3S228.7,43.6,227.3,43.6z M227.3,37.6
			c-1.1,0-2,1.2-2,2.7s0.9,2.7,2,2.7s2-1.2,2-2.7S228.3,37.6,227.3,37.6z"/>
		<path class="st6" d="M273.3,43.6c-1.4,0-2.5-1.5-2.5-3.3s1.1-3.3,2.5-3.3s2.5,1.5,2.5,3.3S274.7,43.6,273.3,43.6z M273.3,37.6
			c-1.1,0-2,1.2-2,2.7s0.9,2.7,2,2.7s2-1.2,2-2.7S274.4,37.6,273.3,37.6z"/>
		<path class="st6" d="M278.6,49.3H278v-9c0-3.5-2.1-6.4-4.7-6.4s-4.7,2.9-4.7,6.4v4H268v-4c0-3.8,2.4-7,5.3-7s5.3,3.1,5.3,7V49.3z"
			/>
		<path class="st6" d="M222.6,49.3H222v-9c0-3.8,2.4-7,5.3-7s5.3,3.1,5.3,7v4H232v-4c0-3.5-2.1-6.4-4.7-6.4s-4.7,2.9-4.7,6.4V49.3z"
			/>
		<polygon class="st6" points="291,51.4 286,25.6 214.5,25.6 209.6,51.4 209,51.2 214,25 286.5,25 291.6,51.2 		"/>
		<polygon class="st6" points="286.2,23.6 255.2,9.6 245.4,9.6 214.4,23.6 214.2,23 245.3,9 255.4,9 286.4,23 		"/>
		
			<rect x="224.7" y="177.4" transform="matrix(0.3773 0.9261 -0.9261 0.3773 321.0067 -122.0536)" class="st6" width="53.2" height="0.6"/>
		
			<rect x="249" y="151.1" transform="matrix(0.9258 0.3781 -0.3781 0.9258 85.6938 -81.0834)" class="st6" width="0.6" height="53.2"/>
		<g>
			<path class="st6" d="M88.6,69.6H6V61h82.6V69.6z M6.6,69H88v-7.4H6.6V69z"/>
			<path class="st6" d="M18.6,76.5H6V69h12.6V76.5z M6.6,75.9H18v-6.3H6.6V75.9z"/>
			<path class="st6" d="M18.6,83.4H6v-7.5h12.6V83.4z M6.6,82.8H18v-6.3H6.6V82.8z"/>
			<path class="st6" d="M18.6,90.3H6v-7.5h12.6V90.3z M6.6,89.7H18v-6.3H6.6V89.7z"/>
			<path class="st6" d="M18.6,97.1H6v-7.5h12.6V97.1z M6.6,96.5H18v-6.3H6.6V96.5z"/>
			<path class="st6" d="M18.6,104H6v-7.5h12.6V104z M6.6,103.4H18v-6.3H6.6V103.4z"/>
			<path class="st6" d="M18.6,110.9H6v-7.5h12.6V110.9z M6.6,110.3H18V104H6.6V110.3z"/>
			<path class="st6" d="M18.6,117.8H6v-7.5h12.6V117.8z M6.6,117.2H18v-6.3H6.6V117.2z"/>
			<path class="st6" d="M18.6,124.7H6v-7.5h12.6V124.7z M6.6,124.1H18v-6.3H6.6V124.1z"/>
			<path class="st6" d="M18.6,131.6H6v-7.5h12.6V131.6z M6.6,131H18v-6.3H6.6V131z"/>
			<path class="st6" d="M18.6,140.3H6v-7.4h12.6V140.3z M6.6,139.7H18v-6.2H6.6V139.7z"/>
			<path class="st6" d="M18.6,147.1H6v-7.4h12.6V147.1z M6.6,146.5H18v-6.2H6.6V146.5z"/>
			<path class="st6" d="M18.6,153.9H6v-7.4h12.6V153.9z M6.6,153.3H18v-6.2H6.6V153.3z"/>
			<path class="st6" d="M18.6,160.7H6v-7.4h12.6V160.7z M6.6,160.1H18v-6.2H6.6V160.1z"/>
			<path class="st6" d="M18.6,167.5H6v-7.4h12.6V167.5z M6.6,166.9H18v-6.2H6.6V166.9z"/>
			<path class="st6" d="M18.6,174.2H6v-7.4h12.6V174.2z M6.6,173.6H18v-6.2H6.6V173.6z"/>
			<path class="st6" d="M18.6,181H6v-7.4h12.6V181z M6.6,180.4H18v-6.2H6.6V180.4z"/>
			<path class="st6" d="M18.6,187.8H6v-7.4h12.6V187.8z M6.6,187.2H18V181H6.6V187.2z"/>
			<path class="st6" d="M18.6,194.6H6v-7.4h12.6V194.6z M6.6,194H18v-6.2H6.6V194z"/>
			<path class="st6" d="M88.6,140.3H76v-7.4h12.6V140.3z M76.6,139.7H88v-6.2H76.6V139.7z"/>
			<path class="st6" d="M88.6,147.1H76v-7.4h12.6V147.1z M76.6,146.5H88v-6.2H76.6V146.5z"/>
			<path class="st6" d="M88.6,153.9H76v-7.4h12.6V153.9z M76.6,153.3H88v-6.2H76.6V153.3z"/>
			<path class="st6" d="M88.6,160.7H76v-7.4h12.6V160.7z M76.6,160.1H88v-6.2H76.6V160.1z"/>
			<path class="st6" d="M88.6,167.5H76v-7.4h12.6V167.5z M76.6,166.9H88v-6.2H76.6V166.9z"/>
			<path class="st6" d="M88.6,174.2H76v-7.4h12.6V174.2z M76.6,173.6H88v-6.2H76.6V173.6z"/>
			<path class="st6" d="M88.6,181H76v-7.4h12.6V181z M76.6,180.4H88v-6.2H76.6V180.4z"/>
			<path class="st6" d="M88.6,187.8H76v-7.4h12.6V187.8z M76.6,187.2H88V181H76.6V187.2z"/>
			<path class="st6" d="M88.6,194.6H76v-7.4h12.6V194.6z M76.6,194H88v-6.2H76.6V194z"/>
			<path class="st6" d="M88.6,76.5H76V69h12.6V76.5z M76.6,75.9H88v-6.3H76.6V75.9z"/>
			<path class="st6" d="M88.6,83.4H76v-7.5h12.6V83.4z M76.6,82.8H88v-6.3H76.6V82.8z"/>
			<path class="st6" d="M88.6,90.3H76v-7.5h12.6V90.3z M76.6,89.7H88v-6.3H76.6V89.7z"/>
			<path class="st6" d="M88.6,97.1H76v-7.5h12.6V97.1z M76.6,96.5H88v-6.3H76.6V96.5z"/>
			<path class="st6" d="M88.6,104H76v-7.5h12.6V104z M76.6,103.4H88v-6.3H76.6V103.4z"/>
			<path class="st6" d="M88.6,110.9H76v-7.5h12.6V110.9z M76.6,110.3H88V104H76.6V110.3z"/>
			<path class="st6" d="M88.6,117.8H76v-7.5h12.6V117.8z M76.6,117.2H88v-6.3H76.6V117.2z"/>
			<path class="st6" d="M88.6,124.7H76v-7.5h12.6V124.7z M76.6,124.1H88v-6.3H76.6V124.1z"/>
			<path class="st6" d="M88.6,131.6H76v-7.5h12.6V131.6z M76.6,131H88v-6.3H76.6V131z"/>
			<path class="st6" d="M88.6,212.6H74V194h14.6V212.6z M74.6,212H88v-17.4H74.6V212z"/>
			<path class="st6" d="M20.6,212.6H6V194h14.6V212.6z M6.6,212H20v-17.4H6.6V212z"/>
			<path class="st6" d="M92.6,59.6H2V57h90.6V59.6z M2.6,59H92v-1.4H2.6V59z"/>
			<path class="st6" d="M94.6,57.6H0V51h94.6V57.6z M0.6,57H94v-5.4H0.6V57z"/>
			<path class="st6" d="M87.6,51.6H7L11,25h72.5L87.6,51.6z M7.6,51H87L83,25.6H11.6L7.6,51z"/>
			<path class="st6" d="M84.6,25.6H10V23h74.6V25.6z M10.6,25H84v-1.4H10.6V25z"/>
			<polygon class="st6" points="83.2,23.6 52.2,9.6 42.4,9.6 11.4,23.6 11.2,23 42.3,9 52.4,9 83.4,23 			"/>
			<path class="st6" d="M88.6,133.6H4V131h84.6V133.6z M4.6,133H88v-1.4H4.6V133z"/>
			<path class="st6" d="M72.6,126.1H50v-2.6h22.6V126.1z M50.6,125.5H72v-1.4H50.6V125.5z"/>
			<path class="st6" d="M69.6,124.1H53V86.8c0-4.6,3.7-8.3,8.3-8.3s8.3,3.7,8.3,8.3V124.1z M53.6,123.5H69V86.8
				c0-4.2-3.5-7.7-7.7-7.7s-7.7,3.5-7.7,7.7V123.5z"/>
			<path class="st6" d="M44.6,126.1H22v-2.6h22.6V126.1z M22.6,125.5H44v-1.4H22.6V125.5z"/>
			<path class="st6" d="M41.6,124.1H25V86.8c0-4.6,3.7-8.3,8.3-8.3s8.3,3.7,8.3,8.3V124.1z M25.6,123.5H41V86.8
				c0-4.2-3.5-7.7-7.7-7.7s-7.7,3.5-7.7,7.7V123.5z"/>
			<path class="st6" d="M69.6,210.6H53v-64.7h16.6V210.6z M53.6,210H69v-63.5H53.6V210z"/>
			<path class="st6" d="M44.6,164.5H22v-2.6h22.6V164.5z M22.6,163.9H44v-1.4H22.6V163.9z"/>
			<path class="st6" d="M71.6,212.6H51V210h20.6V212.6z M51.6,212H71v-1.4H51.6V212z"/>
			<rect x="20.3" y="212" class="st6" width="54" height="0.6"/>
			<path class="st6" d="M74.6,204.6H69v-58.1H53.6v58.1H20V200h33v-54.1h16.6V200h5V204.6z M69.6,204H74v-3.4h-4.4V204z M20.6,204
				H53v-3.4H20.6V204z"/>
			<path class="st6" d="M41.6,162.5H25v-16.6h16.6V162.5z M25.6,161.9H41v-15.4H25.6V161.9z"/>
			
				<rect x="28.3" y="178" transform="matrix(0.2423 0.9702 -0.9702 0.2423 219.3943 75.5929)" class="st6" width="66" height="0.6"/>
			<rect x="61" y="145.2" transform="matrix(0.9705 0.241 -0.241 0.9705 44.7682 -9.5191)" class="st6" width="0.6" height="66"/>
			<g>
				<path class="st6" d="M68.1,51.3h-0.6V37c0-3.1-2-4.5-6.2-4.5s-6.2,1.4-6.2,4.5v14.3h-0.6V37c0-3.4,2.3-5.1,6.8-5.1
					c4.5,0,6.8,1.7,6.8,5.1V51.3z"/>
			</g>
			<g>
				<path class="st6" d="M40.1,51.3h-0.6V37c0-3.1-2-4.5-6.2-4.5s-6.2,1.4-6.2,4.5v14.3h-0.6V37c0-3.4,2.3-5.1,6.8-5.1
					c4.5,0,6.8,1.7,6.8,5.1V51.3z"/>
			</g>
		</g>
		<g>
			<polygon class="st6" points="204.3,57.6 94,57.6 94,51 218.3,51 218.3,51.6 94.6,51.6 94.6,57 204.3,57 			"/>
			<g>
				<path class="st6" d="M128.8,9.6h-8.6V6h8.6V9.6z M120.8,9h7.4V6.6h-7.4V9z"/>
				<path class="st6" d="M128.8,6.6h-8.6V3h8.6V6.6z M120.8,6h7.4V3.6h-7.4V6z"/>
				<path class="st6" d="M129.8,3.6h-10.6V0h10.6V3.6z M119.8,3h9.4V0.6h-9.4V3z"/>
			</g>
			<g>
				<path class="st6" d="M188.8,9.6h-8.6V6h8.6V9.6z M180.8,9h7.4V6.6h-7.4V9z"/>
				<path class="st6" d="M188.8,6.6h-8.6V3h8.6V6.6z M180.8,6h7.4V3.6h-7.4V6z"/>
				<path class="st6" d="M189.8,3.6h-10.6V0h10.6V3.6z M179.8,3h9.4V0.6h-9.4V3z"/>
			</g>
			<path class="st6" d="M213.6,25.6H84V23h129.6V25.6z M84.6,25H213v-1.4H84.6V25z"/>
			<polygon class="st6" points="85.4,23.6 85.2,23 116.3,9 245.3,9 245.3,9.6 116.4,9.6 			"/>
			<g>
				<path class="st6" d="M206.6,71.6H88V69h118.6V71.6z M88.6,71H206v-1.4H88.6V71z"/>
				<path class="st6" d="M204.6,133.6H88V131h116.6V133.6z M88.6,133H204v-1.4H88.6V133z"/>
				<path class="st6" d="M204.3,128.6h-22.6V126h22.6V128.6z M182.3,128h21.4v-1.4h-21.4V128z"/>
				<path class="st6" d="M204.6,59.6H92V57h112.6V59.6z M92.6,59H204v-1.4H92.6V59z"/>
				<polygon class="st6" points="184.3,212.6 88,212.6 88,204 196.3,204 196.3,204.6 88.6,204.6 88.6,212 184.3,212 				"/>
				<polygon class="st6" points="184.3,204.6 88,204.6 88,200 209.3,200 209.3,200.6 88.6,200.6 88.6,204 184.3,204 				"/>
				<path class="st6" d="M201.3,126.6h-16.6V81h16.6V126.6z M185.3,126h15.4V81.6h-15.4V126z"/>
				<path class="st6" d="M175.3,128.6h-22.6V126h22.6V128.6z M153.3,128h21.4v-1.4h-21.4V128z"/>
				<path class="st6" d="M172.3,126.6h-16.6V81h16.6V126.6z M156.3,126h15.4V81.6h-15.4V126z"/>
				<path class="st6" d="M146.3,128.6h-22.6V126h22.6V128.6z M124.3,128h21.4v-1.4h-21.4V128z"/>
				<path class="st6" d="M143.3,126.6h-16.6V81h16.6V126.6z M127.3,126h15.4V81.6h-15.4V126z"/>
				<path class="st6" d="M117.3,128.6H94.7V126h22.6V128.6z M95.3,128h21.4v-1.4H95.3V128z"/>
				<path class="st6" d="M114.3,126.6H97.7V81h16.6V126.6z M98.3,126h15.4V81.6H98.3V126z"/>
				<path class="st6" d="M172.3,200.6h-16.6v-48.3c0-2.4,3.6-4.3,8.3-4.3s8.3,1.9,8.3,4.3V200.6z M156.3,200h15.4v-47.7
					c0-2-3.5-3.7-7.7-3.7s-7.7,1.7-7.7,3.7V200z"/>
				<path class="st6" d="M143.3,200.6h-16.6v-48.3c0-2.4,3.6-4.3,8.3-4.3s8.3,1.9,8.3,4.3V200.6z M127.3,200h15.4v-47.7
					c0-2-3.5-3.7-7.7-3.7s-7.7,1.7-7.7,3.7V200z"/>
				<path class="st6" d="M114.3,200.6H97.7v-48.3c0-2.4,3.6-4.3,8.3-4.3s8.3,1.9,8.3,4.3V200.6z M98.3,200h15.4v-47.7
					c0-2-3.5-3.7-7.7-3.7s-7.7,1.7-7.7,3.7V200z"/>
				<path class="st6" d="M193,146c-1.5,0-2.8-1.3-2.8-2.8s1.3-2.8,2.8-2.8s2.8,1.3,2.8,2.8S194.6,146,193,146z M193,141
					c-1.2,0-2.2,1-2.2,2.2s1,2.2,2.2,2.2s2.2-1,2.2-2.2S194.3,141,193,141z"/>
				<path class="st6" d="M164,146c-1.5,0-2.8-1.3-2.8-2.8s1.3-2.8,2.8-2.8s2.8,1.3,2.8,2.8S165.6,146,164,146z M164,141
					c-1.2,0-2.2,1-2.2,2.2s1,2.2,2.2,2.2s2.2-1,2.2-2.2S165.3,141,164,141z"/>
				<path class="st6" d="M135,146c-1.5,0-2.8-1.3-2.8-2.8s1.3-2.8,2.8-2.8s2.8,1.3,2.8,2.8S136.6,146,135,146z M135,141
					c-1.2,0-2.2,1-2.2,2.2s1,2.2,2.2,2.2s2.2-1,2.2-2.2S136.3,141,135,141z"/>
				<path class="st6" d="M106,146c-1.5,0-2.8-1.3-2.8-2.8s1.3-2.8,2.8-2.8s2.8,1.3,2.8,2.8S107.6,146,106,146z M106,141
					c-1.2,0-2.2,1-2.2,2.2s1,2.2,2.2,2.2s2.2-1,2.2-2.2S107.3,141,106,141z"/>
				<path class="st6" d="M201.3,200.6h-16.6v-48.3c0-2.4,3.6-4.3,8.3-4.3s8.3,1.9,8.3,4.3V200.6z M185.3,200h15.4v-47.7
					c0-2-3.5-3.7-7.7-3.7s-7.7,1.7-7.7,3.7V200z"/>
			</g>
			<path class="st6" d="M112.9,51.3h-0.6V37c0-3.1-2-4.5-6.2-4.5s-6.2,1.4-6.2,4.5v14.3h-0.6V37c0-3.4,2.3-5.1,6.8-5.1
				c4.5,0,6.8,1.7,6.8,5.1V51.3z"/>
			<path class="st6" d="M141.9,51.3h-0.6V37c0-3.1-2-4.5-6.2-4.5s-6.2,1.4-6.2,4.5v14.3h-0.6V37c0-3.4,2.3-5.1,6.8-5.1
				c4.5,0,6.8,1.7,6.8,5.1V51.3z"/>
			<path class="st6" d="M170.9,51.3h-0.6V37c0-3.1-2-4.5-6.2-4.5s-6.2,1.4-6.2,4.5v14.3h-0.6V37c0-3.4,2.3-5.1,6.8-5.1
				c4.5,0,6.8,1.7,6.8,5.1V51.3z"/>
			<path class="st6" d="M199.9,51.3h-0.6V37c0-3.1-2-4.5-6.2-4.5s-6.2,1.4-6.2,4.5v14.3h-0.6V37c0-3.4,2.3-5.1,6.8-5.1
				c4.5,0,6.8,1.7,6.8,5.1V51.3z"/>
		</g>
		<g>
			<g>
				<path class="st6" d="M494.6,69.6H412V61h82.6V69.6z M412.6,69H494v-7.4h-81.4V69z"/>
				<path class="st6" d="M494.6,76.5H482V69h12.6V76.5z M482.6,75.9H494v-6.3h-11.4V75.9z"/>
				<path class="st6" d="M494.6,83.4H482v-7.5h12.6V83.4z M482.6,82.8H494v-6.3h-11.4V82.8z"/>
				<path class="st6" d="M494.6,90.3H482v-7.5h12.6V90.3z M482.6,89.7H494v-6.3h-11.4V89.7z"/>
				<path class="st6" d="M494.6,97.1H482v-7.5h12.6V97.1z M482.6,96.5H494v-6.3h-11.4V96.5z"/>
				<path class="st6" d="M494.6,104H482v-7.5h12.6V104z M482.6,103.4H494v-6.3h-11.4V103.4z"/>
				<path class="st6" d="M494.6,110.9H482v-7.5h12.6V110.9z M482.6,110.3H494V104h-11.4V110.3z"/>
				<path class="st6" d="M494.6,117.8H482v-7.5h12.6V117.8z M482.6,117.2H494v-6.3h-11.4V117.2z"/>
				<path class="st6" d="M494.6,124.7H482v-7.5h12.6V124.7z M482.6,124.1H494v-6.3h-11.4V124.1z"/>
				<path class="st6" d="M494.6,131.6H482v-7.5h12.6V131.6z M482.6,131H494v-6.3h-11.4V131z"/>
				<path class="st6" d="M494.6,140.3H482v-7.4h12.6V140.3z M482.6,139.7H494v-6.2h-11.4V139.7z"/>
				<path class="st6" d="M494.6,147.1H482v-7.4h12.6V147.1z M482.6,146.5H494v-6.2h-11.4V146.5z"/>
				<path class="st6" d="M494.6,153.9H482v-7.4h12.6V153.9z M482.6,153.3H494v-6.2h-11.4V153.3z"/>
				<path class="st6" d="M494.6,160.7H482v-7.4h12.6V160.7z M482.6,160.1H494v-6.2h-11.4V160.1z"/>
				<path class="st6" d="M494.6,167.5H482v-7.4h12.6V167.5z M482.6,166.9H494v-6.2h-11.4V166.9z"/>
				<path class="st6" d="M494.6,174.2H482v-7.4h12.6V174.2z M482.6,173.6H494v-6.2h-11.4V173.6z"/>
				<path class="st6" d="M494.6,181H482v-7.4h12.6V181z M482.6,180.4H494v-6.2h-11.4V180.4z"/>
				<path class="st6" d="M494.6,187.8H482v-7.4h12.6V187.8z M482.6,187.2H494V181h-11.4V187.2z"/>
				<path class="st6" d="M494.6,194.6H482v-7.4h12.6V194.6z M482.6,194H494v-6.2h-11.4V194z"/>
				<path class="st6" d="M424.6,140.3H412v-7.4h12.6V140.3z M412.6,139.7H424v-6.2h-11.4V139.7z"/>
				<path class="st6" d="M424.6,147.1H412v-7.4h12.6V147.1z M412.6,146.5H424v-6.2h-11.4V146.5z"/>
				<path class="st6" d="M424.6,153.9H412v-7.4h12.6V153.9z M412.6,153.3H424v-6.2h-11.4V153.3z"/>
				<path class="st6" d="M424.6,160.7H412v-7.4h12.6V160.7z M412.6,160.1H424v-6.2h-11.4V160.1z"/>
				<path class="st6" d="M424.6,167.5H412v-7.4h12.6V167.5z M412.6,166.9H424v-6.2h-11.4V166.9z"/>
				<path class="st6" d="M424.6,174.2H412v-7.4h12.6V174.2z M412.6,173.6H424v-6.2h-11.4V173.6z"/>
				<path class="st6" d="M424.6,181H412v-7.4h12.6V181z M412.6,180.4H424v-6.2h-11.4V180.4z"/>
				<path class="st6" d="M424.6,187.8H412v-7.4h12.6V187.8z M412.6,187.2H424V181h-11.4V187.2z"/>
				<path class="st6" d="M424.6,194.6H412v-7.4h12.6V194.6z M412.6,194H424v-6.2h-11.4V194z"/>
				<path class="st6" d="M424.6,76.5H412V69h12.6V76.5z M412.6,75.9H424v-6.3h-11.4V75.9z"/>
				<path class="st6" d="M424.6,83.4H412v-7.5h12.6V83.4z M412.6,82.8H424v-6.3h-11.4V82.8z"/>
				<path class="st6" d="M424.6,90.3H412v-7.5h12.6V90.3z M412.6,89.7H424v-6.3h-11.4V89.7z"/>
				<path class="st6" d="M424.6,97.1H412v-7.5h12.6V97.1z M412.6,96.5H424v-6.3h-11.4V96.5z"/>
				<path class="st6" d="M424.6,104H412v-7.5h12.6V104z M412.6,103.4H424v-6.3h-11.4V103.4z"/>
				<path class="st6" d="M424.6,110.9H412v-7.5h12.6V110.9z M412.6,110.3H424V104h-11.4V110.3z"/>
				<path class="st6" d="M424.6,117.8H412v-7.5h12.6V117.8z M412.6,117.2H424v-6.3h-11.4V117.2z"/>
				<path class="st6" d="M424.6,124.7H412v-7.5h12.6V124.7z M412.6,124.1H424v-6.3h-11.4V124.1z"/>
				<path class="st6" d="M424.6,131.6H412v-7.5h12.6V131.6z M412.6,131H424v-6.3h-11.4V131z"/>
				<path class="st6" d="M426.6,212.6H412V194h14.6V212.6z M412.6,212H426v-17.4h-13.4V212z"/>
				<path class="st6" d="M494.6,212.6H480V194h14.6V212.6z M480.6,212H494v-17.4h-13.4V212z"/>
				<path class="st6" d="M498.6,59.6H408V57h90.6V59.6z M408.6,59H498v-1.4h-89.4V59z"/>
				<path class="st6" d="M500.6,57.6H406V51h94.6V57.6z M406.6,57H500v-5.4h-93.4V57z"/>
				<path class="st6" d="M493.7,51.6H413l4.1-26.6h72.5L493.7,51.6z M413.7,51H493l-3.9-25.4h-71.5L413.7,51z"/>
				<path class="st6" d="M490.6,25.6H416V23h74.6V25.6z M416.6,25H490v-1.4h-73.4V25z"/>
				<polygon class="st6" points="489.2,23.6 458.3,9.6 448.4,9.6 417.5,23.6 417.2,23 448.3,9 458.5,9 489.5,23 				"/>
				<path class="st6" d="M496.6,133.6H412V131h84.6V133.6z M412.6,133H496v-1.4h-83.4V133z"/>
				<path class="st6" d="M450.6,126.1H428v-2.6h22.6V126.1z M428.6,125.5H450v-1.4h-21.4V125.5z"/>
				<path class="st6" d="M447.6,124.1H431V86.8c0-4.6,3.7-8.3,8.3-8.3s8.3,3.7,8.3,8.3V124.1z M431.6,123.5H447V86.8
					c0-4.2-3.5-7.7-7.7-7.7s-7.7,3.5-7.7,7.7V123.5z"/>
				<path class="st6" d="M478.6,126.1H456v-2.6h22.6V126.1z M456.6,125.5H478v-1.4h-21.4V125.5z"/>
				<path class="st6" d="M475.6,124.1H459V86.8c0-4.6,3.7-8.3,8.3-8.3s8.3,3.7,8.3,8.3V124.1z M459.6,123.5H475V86.8
					c0-4.2-3.5-7.7-7.7-7.7s-7.7,3.5-7.7,7.7V123.5z"/>
				<path class="st6" d="M447.6,210.6H431v-64.7h16.6V210.6z M431.6,210H447v-63.5h-15.4V210z"/>
				<path class="st6" d="M478.6,164.5H456v-2.6h22.6V164.5z M456.6,163.9H478v-1.4h-21.4V163.9z"/>
				<path class="st6" d="M449.6,212.6H429V210h20.6V212.6z M429.6,212H449v-1.4h-19.4V212z"/>
				<rect x="426.3" y="212" class="st6" width="54" height="0.6"/>
				<path class="st6" d="M480.6,204.6H447v-58.1h-15.4v58.1H426V200h5v-54.1h16.6V200h33V204.6z M447.6,204H480v-3.4h-32.4V204z
					 M426.6,204h4.4v-3.4h-4.4V204z"/>
				<path class="st6" d="M475.6,162.5H459v-16.6h16.6V162.5z M459.6,161.9H475v-15.4h-15.4V161.9z"/>
				
					<rect x="439" y="145.2" transform="matrix(0.9705 0.241 -0.241 0.9705 55.9111 -100.6275)" class="st6" width="0.6" height="66"/>
				
					<rect x="406.3" y="178" transform="matrix(0.2423 0.9702 -0.9702 0.2423 505.8296 -291.1799)" class="st6" width="66" height="0.6"/>
				<g>
					<path class="st6" d="M446.2,51.3h-0.6V37c0-3.1-2-4.5-6.2-4.5s-6.2,1.4-6.2,4.5v14.3h-0.6V37c0-3.4,2.3-5.1,6.8-5.1
						c4.5,0,6.8,1.7,6.8,5.1V51.3z"/>
				</g>
				<g>
					<path class="st6" d="M474.2,51.3h-0.6V37c0-3.1-2-4.5-6.2-4.5s-6.2,1.4-6.2,4.5v14.3h-0.6V37c0-3.4,2.3-5.1,6.8-5.1
						c4.5,0,6.8,1.7,6.8,5.1V51.3z"/>
				</g>
			</g>
			<g>
				<polygon class="st6" points="406.6,57.6 296.3,57.6 296.3,57 406,57 406,51.6 282.4,51.6 282.4,51 406.6,51 				"/>
				<g>
					<path class="st6" d="M380.4,9.6h-8.6V6h8.6V9.6z M372.4,9h7.4V6.6h-7.4V9z"/>
					<path class="st6" d="M380.4,6.6h-8.6V3h8.6V6.6z M372.4,6h7.4V3.6h-7.4V6z"/>
					<path class="st6" d="M381.4,3.6h-10.6V0h10.6V3.6z M371.4,3h9.4V0.6h-9.4V3z"/>
				</g>
				<g>
					<path class="st6" d="M320.4,9.6h-8.6V6h8.6V9.6z M312.4,9h7.4V6.6h-7.4V9z"/>
					<path class="st6" d="M320.4,6.6h-8.6V3h8.6V6.6z M312.4,6h7.4V3.6h-7.4V6z"/>
					<path class="st6" d="M321.4,3.6h-10.6V0h10.6V3.6z M311.4,3h9.4V0.6h-9.4V3z"/>
				</g>
				<path class="st6" d="M416.6,25.6H287V23h129.6V25.6z M287.6,25H416v-1.4H287.6V25z"/>
				<polygon class="st6" points="415.2,23.6 384.3,9.6 255.3,9.6 255.3,9 384.4,9 384.5,9 415.5,23 				"/>
				<g>
					<path class="st6" d="M412.6,71.6H294V69h118.6V71.6z M294.6,71H412v-1.4H294.6V71z"/>
					<path class="st6" d="M412.6,133.6H296V131h116.6V133.6z M296.6,133H412v-1.4H296.6V133z"/>
					<path class="st6" d="M318.9,128.6h-22.6V126h22.6V128.6z M296.9,128h21.4v-1.4h-21.4V128z"/>
					<path class="st6" d="M408.6,59.6H296V57h112.6V59.6z M296.6,59H408v-1.4H296.6V59z"/>
					<polygon class="st6" points="412.6,212.6 316.3,212.6 316.3,212 412,212 412,204.6 304.3,204.6 304.3,204 412.6,204 					"/>
					<polygon class="st6" points="412.6,204.6 316.3,204.6 316.3,204 412,204 412,200.6 291.3,200.6 291.3,200 412.6,200 					"/>
					<path class="st6" d="M315.9,126.6h-16.6V81h16.6V126.6z M299.9,126h15.4V81.6h-15.4V126z"/>
					<path class="st6" d="M347.9,128.6h-22.6V126h22.6V128.6z M325.9,128h21.4v-1.4h-21.4V128z"/>
					<path class="st6" d="M344.9,126.6h-16.6V81h16.6V126.6z M328.9,126h15.4V81.6h-15.4V126z"/>
					<path class="st6" d="M376.9,128.6h-22.6V126h22.6V128.6z M354.9,128h21.4v-1.4h-21.4V128z"/>
					<path class="st6" d="M373.9,126.6h-16.6V81h16.6V126.6z M357.9,126h15.4V81.6h-15.4V126z"/>
					<path class="st6" d="M405.9,128.6h-22.6V126h22.6V128.6z M383.9,128h21.4v-1.4h-21.4V128z"/>
					<path class="st6" d="M402.9,126.6h-16.6V81h16.6V126.6z M386.9,126h15.4V81.6h-15.4V126z"/>
					<path class="st6" d="M344.9,200.6h-16.6v-48.3c0-2.4,3.6-4.3,8.3-4.3s8.3,1.9,8.3,4.3V200.6z M328.9,200h15.4v-47.7
						c0-2-3.5-3.7-7.7-3.7s-7.7,1.7-7.7,3.7V200z"/>
					<path class="st6" d="M373.9,200.6h-16.6v-48.3c0-2.4,3.6-4.3,8.3-4.3s8.3,1.9,8.3,4.3V200.6z M357.9,200h15.4v-47.7
						c0-2-3.5-3.7-7.7-3.7s-7.7,1.7-7.7,3.7V200z"/>
					<path class="st6" d="M402.9,200.6h-16.6v-48.3c0-2.4,3.6-4.3,8.3-4.3s8.3,1.9,8.3,4.3V200.6z M386.9,200h15.4v-47.7
						c0-2-3.5-3.7-7.7-3.7s-7.7,1.7-7.7,3.7V200z"/>
					<path class="st6" d="M307.6,146c-1.5,0-2.8-1.3-2.8-2.8s1.3-2.8,2.8-2.8s2.8,1.3,2.8,2.8S309.1,146,307.6,146z M307.6,141
						c-1.2,0-2.2,1-2.2,2.2s1,2.2,2.2,2.2s2.2-1,2.2-2.2S308.8,141,307.6,141z"/>
					<path class="st6" d="M336.6,146c-1.5,0-2.8-1.3-2.8-2.8s1.3-2.8,2.8-2.8s2.8,1.3,2.8,2.8S338.1,146,336.6,146z M336.6,141
						c-1.2,0-2.2,1-2.2,2.2s1,2.2,2.2,2.2s2.2-1,2.2-2.2S337.8,141,336.6,141z"/>
					<path class="st6" d="M365.6,146c-1.5,0-2.8-1.3-2.8-2.8s1.3-2.8,2.8-2.8s2.8,1.3,2.8,2.8S367.1,146,365.6,146z M365.6,141
						c-1.2,0-2.2,1-2.2,2.2s1,2.2,2.2,2.2s2.2-1,2.2-2.2S366.8,141,365.6,141z"/>
					<path class="st6" d="M394.6,146c-1.5,0-2.8-1.3-2.8-2.8s1.3-2.8,2.8-2.8s2.8,1.3,2.8,2.8S396.1,146,394.6,146z M394.6,141
						c-1.2,0-2.2,1-2.2,2.2s1,2.2,2.2,2.2s2.2-1,2.2-2.2S395.8,141,394.6,141z"/>
					<path class="st6" d="M315.9,200.6h-16.6v-48.3c0-2.4,3.6-4.3,8.3-4.3s8.3,1.9,8.3,4.3V200.6z M299.9,200h15.4v-47.7
						c0-2-3.5-3.7-7.7-3.7s-7.7,1.7-7.7,3.7V200z"/>
				</g>
				<path class="st6" d="M401.4,51.3h-0.6V37c0-3.1-2-4.5-6.2-4.5s-6.2,1.4-6.2,4.5v14.3h-0.6V37c0-3.4,2.3-5.1,6.8-5.1
					c4.5,0,6.8,1.7,6.8,5.1V51.3z"/>
				<path class="st6" d="M372.4,51.3h-0.6V37c0-3.1-2-4.5-6.2-4.5s-6.2,1.4-6.2,4.5v14.3h-0.6V37c0-3.4,2.3-5.1,6.8-5.1
					c4.5,0,6.8,1.7,6.8,5.1V51.3z"/>
				<path class="st6" d="M343.4,51.3h-0.6V37c0-3.1-2-4.5-6.2-4.5s-6.2,1.4-6.2,4.5v14.3h-0.6V37c0-3.4,2.3-5.1,6.8-5.1
					c4.5,0,6.8,1.7,6.8,5.1V51.3z"/>
				<path class="st6" d="M314.4,51.3h-0.6V37c0-3.1-2-4.5-6.2-4.5s-6.2,1.4-6.2,4.5v14.3h-0.6V37c0-3.4,2.3-5.1,6.8-5.1
					c4.5,0,6.8,1.7,6.8,5.1V51.3z"/>
			</g>
		</g>
		<rect x="287" y="148.3" class="st6" width="0.6" height="44"/>
		<rect x="267" y="148.3" class="st6" width="0.6" height="44"/>
		<rect x="233" y="148.3" class="st6" width="0.6" height="44"/>
		<rect x="213" y="148.3" class="st6" width="0.6" height="44"/>
		<rect x="287" y="81.3" class="st6" width="0.6" height="40"/>
		<rect x="267" y="81.3" class="st6" width="0.6" height="40"/>
		<rect x="233" y="81.3" class="st6" width="0.6" height="40"/>
		<rect x="213" y="81.3" class="st6" width="0.6" height="40"/>
	</g>
</g>
</svg>
